<svg width="80" height="80" viewBox="0 0 80 80" fill="none" xmlns="http://www.w3.org/2000/svg">
<circle cx="40" cy="40" r="40" fill="#318161"/>
<path d="M61.4371 60.1909C60.2247 57.1971 58.4652 54.4777 56.2568 52.1842C54.055 49.8841 51.4468 48.0502 48.5762 46.7839C48.5505 46.7705 48.5248 46.7638 48.4991 46.7504C52.5032 43.7353 55.1063 38.8241 55.1063 33.283C55.1063 24.1038 47.972 16.6666 39.1667 16.6666C30.3613 16.6666 23.2271 24.1038 23.2271 33.283C23.2271 38.8241 25.8301 43.7353 29.8343 46.7571C29.8086 46.7705 29.7829 46.7772 29.7572 46.7906C26.8777 48.0569 24.294 49.8727 22.0766 52.1909C19.8702 54.4862 18.111 57.2051 16.8962 60.1976C15.7028 63.1273 15.0592 66.2683 15.0002 69.4505C14.9984 69.5221 15.0105 69.5932 15.0355 69.6598C15.0606 69.7264 15.0982 69.7871 15.1461 69.8383C15.1941 69.8895 15.2513 69.9301 15.3146 69.9579C15.3778 69.9857 15.4457 70 15.5143 70H19.3707C19.6535 70 19.8785 69.7655 19.8849 69.4773C20.0134 64.3048 22.0059 59.4606 25.528 55.7889C29.1723 51.9899 34.012 49.8995 39.1667 49.8995C44.3213 49.8995 49.1611 51.9899 52.8053 55.7889C56.3275 59.4606 58.3199 64.3048 58.4485 69.4773C58.4549 69.7722 58.6798 70 58.9626 70H62.819C62.8876 70 62.9555 69.9857 63.0188 69.9579C63.082 69.9301 63.1393 69.8895 63.1872 69.8383C63.2351 69.7871 63.2727 69.7264 63.2978 69.6598C63.3229 69.5932 63.3349 69.5221 63.3332 69.4505C63.2689 66.2479 62.6326 63.1323 61.4371 60.1909ZM39.1667 44.8073C36.2166 44.8073 33.44 43.608 31.3511 41.4304C29.2623 39.2529 28.1118 36.3584 28.1118 33.283C28.1118 30.2077 29.2623 27.3132 31.3511 25.1356C33.44 22.9581 36.2166 21.7588 39.1667 21.7588C42.1168 21.7588 44.8934 22.9581 46.9822 25.1356C49.0711 27.3132 50.2216 30.2077 50.2216 33.283C50.2216 36.3584 49.0711 39.2529 46.9822 41.4304C44.8934 43.608 42.1168 44.8073 39.1667 44.8073Z" fill="white" fill-opacity="0.8"/>
</svg>
